# xmcd CD database file
#
# Track frame offsets:
#	150
#	10565
#	23653
#	35139
#	46371
#	57558
#	69324
#	84058
#	97195
#	109010
#	115741
#	131750
#	141962
#	156559
#	169592
#	176241
#	187927
#	201972
#
# Disc length: 2869 seconds
#
# Revision: 1
# Processed by: cddbd v1.5.1PL0 Copyright (c) Steve Scherf et al.
# Submitted via: CDex 1.51
#
DISCID=f70b3312
DTITLE=Cole, Nat King - It's Only A Paper Moon
DYEAR=1900
DGENRE=Jazz
TTITLE0=I'm An Errand Boy For Rhythm
TTITLE1=It's Only A Paper Moon
TTITLE2=Straighten Up And Fly Right
TTITLE3=Scotchin' With The Soda
TTITLE4=Katusha
TTITLE5=Loan Me Two Till Tuesday
TTITLE6=The Frim Fram Sauce
TTITLE7=It Only Happens Once
TTITLE8=Stop! The Red Light's On
TTITLE9=Thou Swell
TTITLE10=The End Of A Beautiful Friendship
TTITLE11=It's Crazy But I'm In Love
TTITLE12=That Ain't Right
TTITLE13=I'm A Shy Guy
TTITLE14=I'm Shootin' High
TTITLE15=Nothing Ever Happens
TTITLE16=Slow Down
TTITLE17=I'm Through With Love
EXTD=
EXTT0=
EXTT1=
EXTT2=
EXTT3=
EXTT4=
EXTT5=
EXTT6=
EXTT7=
EXTT8=
EXTT9=
EXTT10=
EXTT11=
EXTT12=
EXTT13=
EXTT14=
EXTT15=
EXTT16=
EXTT17=
PLAYORDER=
